<?xml version="1.0" standalone="no"?>
<!DOCTYPE svg PUBLIC "-//W3C//DTD SVG 20010904//EN"
 "http://www.w3.org/TR/2001/REC-SVG-20010904/DTD/svg10.dtd">
<svg version="1.0" xmlns="http://www.w3.org/2000/svg"
 width="249.000000pt" height="249.000000pt" viewBox="0 0 249.000000 249.000000"
 preserveAspectRatio="xMidYMid meet">
<metadata>
Created by potrace 1.14, written by Peter Selinger 2001-2017
</metadata>
<g transform="translate(0.000000,249.000000) scale(0.100000,-0.100000)"
fill="#000000" stroke="none">
<path d="M1861 1539 c-50 -68 -71 -88 -126 -118 -81 -44 -143 -94 -181 -143
-15 -21 -33 -38 -39 -38 -6 0 -30 -14 -53 -31 -24 -17 -44 -30 -45 -28 -2 2
-11 16 -20 32 -17 27 -19 27 -117 27 l-100 0 2 -95 c1 -66 5 -95 13 -95 7 0
12 13 13 30 0 16 3 33 6 38 4 6 98 8 154 3 7 -1 12 -15 12 -36 0 -22 5 -35 13
-35 15 0 14 57 -1 72 -13 13 7 38 25 31 6 -2 26 3 43 12 54 28 69 27 85 -6 15
-29 15 -31 -25 -86 -22 -31 -40 -59 -40 -63 0 -3 104 -6 230 -5 243 0 244 0
220 -45 -9 -16 -6 -21 14 -26 43 -10 66 4 66 39 l0 32 141 0 c135 -1 143 -2
160 -24 23 -28 24 -54 3 -85 -14 -23 -14 -25 6 -31 11 -4 34 -3 51 0 29 7 30
9 26 45 -2 20 -8 43 -12 50 -5 8 -9 25 -10 39 -2 14 -6 35 -10 45 -6 14 -5 17
3 12 8 -5 12 3 13 26 1 18 1 36 0 40 0 4 11 3 25 -2 63 -24 84 -4 65 61 -15
51 -42 67 -121 73 -36 3 -90 14 -120 24 -54 18 -58 22 -172 178 -65 87 -122
160 -127 162 -5 2 -37 -34 -70 -79z m-483 -348 c5 -36 -11 -44 -92 -45 l-74
-2 -4 33 c-2 19 -2 36 1 39 3 2 41 3 86 2 76 -3 80 -4 83 -27z m1054 -12 c24
-29 14 -40 -22 -26 -39 15 -65 0 -65 -36 1 -36 -11 -24 -19 19 -4 19 -10 42
-12 49 -4 9 5 15 28 17 51 6 71 0 90 -23z"/>
<path d="M5 1541 c-10 -9 -5 -251 5 -252 59 -6 65 -3 68 28 l3 31 95 4 c86 3
98 5 115 27 41 50 15 158 -39 162 -56 4 -244 4 -247 0z m220 -82 c10 -32 -8
-42 -80 -43 l-65 -2 0 33 0 33 69 0 c62 0 70 -2 76 -21z"/>
<path d="M383 1541 c-11 -7 -12 -230 -1 -246 7 -11 234 -13 245 -1 11 11 11
46 -1 53 -5 4 -46 7 -90 7 l-81 1 -1 85 c-1 47 -2 90 -3 95 -1 11 -53 16 -68
6z"/>
<path d="M689 1526 c-4 -76 2 -184 12 -203 17 -31 53 -41 151 -41 90 0 143 16
153 47 5 16 9 134 6 192 -1 22 -5 25 -33 23 -18 -1 -35 -2 -38 -3 -3 0 -6 -40
-6 -87 -1 -99 -4 -104 -81 -104 -83 0 -83 0 -83 104 l0 92 -40 0 c-33 0 -40
-3 -41 -20z"/>
<path d="M1121 1539 c-12 -5 -25 -19 -30 -31 -12 -34 -4 -91 16 -105 16 -13
28 -14 146 -15 54 -1 86 -16 74 -35 -3 -5 -37 -10 -75 -11 -52 -2 -72 1 -82
13 -7 9 -28 15 -51 15 -36 0 -37 -1 -33 -27 10 -53 24 -58 158 -58 108 0 127
3 145 19 27 24 28 85 3 117 -19 23 -42 26 -179 28 -36 1 -43 4 -43 21 0 18 7
20 70 20 54 0 72 -4 76 -15 4 -10 20 -15 45 -15 34 0 39 3 39 23 -1 52 -32 65
-156 64 -55 0 -110 -4 -123 -8z"/>
<path d="M0 1144 c0 -72 3 -95 12 -91 8 2 12 16 10 35 l-4 32 69 1 c37 1 72 1
77 0 24 -5 53 29 54 63 2 48 -16 56 -127 56 l-91 0 0 -96z m188 39 c4 -39 -11
-45 -103 -41 l-60 3 -2 38 -2 38 82 -3 82 -3 3 -32z"/>
<path d="M266 1219 c-9 -14 -14 -42 -13 -80 3 -84 14 -92 127 -93 81 -1 93 1
107 19 19 27 14 152 -7 165 -8 6 -56 10 -107 10 -82 0 -93 -2 -107 -21z m202
-16 c10 -20 9 -119 -1 -130 -12 -11 -167 -7 -179 5 -12 12 -14 115 -3 132 4 6
44 10 90 10 70 0 86 -3 93 -17z"/>
<path d="M527 1223 c24 -63 84 -171 98 -176 12 -5 21 4 34 36 11 23 28 62 39
87 l21 45 41 -88 c34 -74 43 -86 57 -79 22 13 106 192 89 192 -6 0 -30 -36
-51 -80 -21 -44 -41 -80 -45 -80 -3 0 -20 36 -39 80 -44 106 -57 106 -106 -5
l-38 -86 -40 86 c-22 47 -46 85 -53 85 -9 0 -11 -6 -7 -17z"/>
<path d="M942 1145 l1 -95 31 -1 c107 -4 160 -2 156 7 -3 5 -30 10 -60 11 -30
1 -66 2 -80 2 -24 1 -26 4 -22 37 4 35 5 35 51 34 81 -3 111 0 111 10 0 6 -33
10 -80 10 l-80 0 0 30 0 30 85 0 c50 0 85 4 85 10 0 6 -40 10 -100 10 l-99 0
1 -95z"/>
<path d="M2 973 c3 -30 33 -40 35 -12 1 11 -5 19 -15 20 -11 1 -8 4 8 9 l25 8
-28 1 c-25 1 -28 -2 -25 -26z"/>
<path d="M125 975 c3 -31 15 -46 15 -19 1 19 1 19 15 0 11 -15 15 -16 16 -5 0
8 2 22 4 32 2 9 -1 17 -6 17 -5 0 -9 -5 -9 -12 0 -9 -3 -9 -12 0 -19 19 -26
14 -23 -13z"/>
<path d="M258 971 c3 -23 8 -29 24 -26 12 3 23 7 27 11 3 4 -2 4 -11 1 -10 -3
-20 -2 -23 3 -3 5 3 11 12 13 16 4 15 5 -2 7 l-20 1 20 9 c18 8 18 9 -6 9 -23
1 -25 -2 -21 -28z"/>
<path d="M380 974 c0 -15 4 -23 10 -19 6 4 17 2 24 -4 10 -9 13 -4 14 19 1 25
-3 30 -24 30 -19 0 -24 -5 -24 -26z m37 10 c-3 -3 -12 -4 -19 -1 -8 3 -5 6 6
6 11 1 17 -2 13 -5z"/>
<path d="M513 984 c-7 -19 20 -49 36 -40 14 9 14 36 0 36 -5 0 -7 -4 -4 -10 3
-5 -1 -10 -9 -10 -24 0 -19 19 7 30 l22 9 -23 0 c-12 1 -25 -6 -29 -15z"/>
<path d="M648 988 c7 -7 12 -21 12 -32 1 -19 2 -19 15 4 19 33 19 46 0 30 -10
-9 -15 -9 -15 -1 0 6 -5 11 -12 11 -9 0 -9 -3 0 -12z"/>
<path d="M859 998 c0 -2 -2 -15 -4 -29 -3 -23 0 -25 21 -21 29 5 36 15 28 36
-5 13 -42 24 -45 14z m31 -23 c0 -8 -4 -15 -10 -15 -5 0 -10 7 -10 15 0 8 5
15 10 15 6 0 10 -7 10 -15z"/>
<path d="M991 968 c0 -18 3 -27 6 -20 4 10 8 10 21 0 13 -11 15 -10 9 4 -3 10
-2 20 4 23 14 9 1 25 -22 25 -15 0 -19 -7 -18 -32z m29 12 c0 -5 -2 -10 -4
-10 -3 0 -8 5 -11 10 -3 6 -1 10 4 10 6 0 11 -4 11 -10z"/>
<path d="M1117 988 c-2 -7 -1 -22 4 -33 6 -16 8 -14 8 13 1 33 -4 41 -12 20z"/>
<path d="M1219 1000 c-5 -28 -4 -50 2 -50 13 0 20 33 9 44 -5 5 -10 8 -11 6z"/>
<path d="M1247 981 c-2 -10 -1 -25 4 -32 9 -14 10 -12 14 29 3 27 -11 30 -18
3z"/>
<path d="M1350 970 c0 -25 3 -31 9 -21 8 13 12 13 27 0 16 -13 16 -12 5 10
-11 19 -11 25 0 32 10 6 10 9 2 9 -6 0 -15 -5 -19 -11 -4 -8 -9 -7 -15 2 -6 9
-9 2 -9 -21z"/>
</g>
</svg>
